<svg width="400" height="400" viewBox="0 0 400 400" fill="none" xmlns="http://www.w3.org/2000/svg">
<rect width="400" height="400" fill="url(#paint0_linear)"/>
<path d="M229.804 286.74C231.084 284.82 232.384 283.41 233.704 282.51C235.024 281.59 236.364 281.13 237.724 281.13C238.544 281.13 239.294 281.29 239.974 281.61C240.674 281.91 241.264 282.34 241.744 282.9C242.244 283.46 242.634 284.13 242.914 284.91C243.194 285.67 243.334 286.5 243.334 287.4C243.334 287.52 243.334 287.64 243.334 287.76C243.334 287.88 243.324 288 243.304 288.12C243.404 288.16 243.574 288.19 243.814 288.21C244.054 288.21 244.224 288.21 244.324 288.21H244.984C245.104 288.21 245.204 288.24 245.284 288.3C245.364 288.34 245.434 288.45 245.494 288.63C245.554 288.81 245.594 289.09 245.614 289.47C245.634 289.85 245.644 290.37 245.644 291.03C245.644 291.73 245.634 292.28 245.614 292.68C245.594 293.08 245.554 293.38 245.494 293.58C245.434 293.78 245.364 293.9 245.284 293.94C245.204 293.98 245.104 294 244.984 294H244.324C243.744 294 243.134 293.94 242.494 293.82C241.874 293.7 241.254 293.41 240.634 292.95C240.134 293.29 239.564 293.55 238.924 293.73C238.284 293.91 237.554 294 236.734 294H230.944C230.444 294 229.964 293.95 229.504 293.85C229.344 294.81 229.054 295.7 228.634 296.52C228.214 297.34 227.664 298.05 226.984 298.65C226.304 299.25 225.504 299.72 224.584 300.06C223.684 300.42 222.674 300.6 221.554 300.6H220.054C218.814 300.6 217.704 300.41 216.724 300.03C215.764 299.65 214.944 299.1 214.264 298.38C213.584 297.68 213.064 296.82 212.704 295.8C212.344 294.78 212.164 293.63 212.164 292.35V286.08H217.594V292.5C217.594 293.26 217.814 293.84 218.254 294.24C218.694 294.64 219.404 294.84 220.384 294.84H221.374C222.454 294.84 223.224 294.62 223.684 294.18C224.144 293.74 224.374 293.18 224.374 292.5V283.26H229.804V286.74ZM237.064 288.39C237.404 288.39 237.654 288.3 237.814 288.12C237.974 287.92 238.054 287.7 238.054 287.46C238.054 287.24 237.964 287.04 237.784 286.86C237.624 286.66 237.404 286.56 237.124 286.56C236.844 286.56 236.484 286.72 236.044 287.04C235.624 287.36 235.084 287.81 234.424 288.39H237.064ZM246.126 288.21C246.266 288.21 246.386 288.17 246.486 288.09C246.586 287.99 246.636 287.87 246.636 287.73V283.26H252.096V286.74C253.356 284.82 254.646 283.41 255.966 282.51C257.286 281.59 258.636 281.13 260.016 281.13C260.836 281.13 261.586 281.29 262.266 281.61C262.946 281.91 263.536 282.34 264.036 282.9C264.536 283.46 264.916 284.13 265.176 284.91C265.456 285.67 265.596 286.5 265.596 287.4C265.596 287.52 265.596 287.64 265.596 287.76C265.596 287.88 265.586 288 265.566 288.12C265.666 288.16 265.836 288.19 266.076 288.21C266.336 288.21 266.516 288.21 266.616 288.21H267.276C267.396 288.21 267.496 288.24 267.576 288.3C267.656 288.34 267.726 288.45 267.786 288.63C267.846 288.81 267.886 289.09 267.906 289.47C267.926 289.85 267.936 290.37 267.936 291.03C267.936 291.73 267.926 292.28 267.906 292.68C267.886 293.08 267.846 293.38 267.786 293.58C267.726 293.78 267.656 293.9 267.576 293.94C267.496 293.98 267.396 294 267.276 294H266.616C266.036 294 265.426 293.94 264.786 293.82C264.146 293.7 263.516 293.41 262.896 292.95C262.396 293.29 261.826 293.55 261.186 293.73C260.546 293.91 259.826 294 259.026 294H252.426C251.766 294 251.146 293.94 250.566 293.82C250.006 293.7 249.516 293.43 249.096 293.01C248.616 293.43 248.126 293.7 247.626 293.82C247.146 293.94 246.706 294 246.306 294H244.986C244.866 294 244.766 293.98 244.686 293.94C244.586 293.9 244.516 293.79 244.476 293.61C244.416 293.41 244.376 293.12 244.356 292.74C244.336 292.36 244.326 291.84 244.326 291.18C244.326 290.48 244.336 289.93 244.356 289.53C244.376 289.13 244.416 288.84 244.476 288.66C244.516 288.46 244.586 288.34 244.686 288.3C244.766 288.24 244.866 288.21 244.986 288.21H246.126ZM259.356 288.39C259.696 288.39 259.946 288.3 260.106 288.12C260.266 287.92 260.346 287.7 260.346 287.46C260.346 287.24 260.256 287.04 260.076 286.86C259.916 286.66 259.696 286.56 259.416 286.56C259.136 286.56 258.776 286.72 258.336 287.04C257.916 287.36 257.376 287.81 256.716 288.39H259.356ZM268.931 286.26L269.411 280.8H276.851C277.431 280.8 277.981 280.87 278.501 281.01C279.021 281.15 279.511 281.44 279.971 281.88C280.451 282.32 280.901 282.96 281.321 283.8C281.741 284.62 282.151 285.71 282.551 287.07L281.081 288.21H284.261C284.381 288.21 284.481 288.24 284.561 288.3C284.661 288.34 284.731 288.45 284.771 288.63C284.831 288.81 284.871 289.09 284.891 289.47C284.911 289.85 284.921 290.37 284.921 291.03C284.921 291.73 284.911 292.28 284.891 292.68C284.871 293.08 284.831 293.38 284.771 293.58C284.731 293.78 284.661 293.9 284.561 293.94C284.481 293.98 284.381 294 284.261 294H281.801C280.661 294 279.741 293.77 279.041 293.31C278.361 292.85 277.821 292.32 277.421 291.72L276.851 292.02C276.191 292.4 275.581 292.72 275.021 292.98C274.461 293.22 273.891 293.42 273.311 293.58C272.751 293.72 272.151 293.83 271.511 293.91C270.891 293.97 270.191 294 269.411 294H267.281C267.161 294 267.061 293.98 266.981 293.94C266.881 293.9 266.811 293.79 266.771 293.61C266.711 293.41 266.671 293.12 266.651 292.74C266.631 292.36 266.621 291.84 266.621 291.18C266.621 290.48 266.631 289.93 266.651 289.53C266.671 289.13 266.711 288.84 266.771 288.66C266.811 288.46 266.881 288.34 266.981 288.3C267.061 288.24 267.161 288.21 267.281 288.21H269.591C270.091 288.21 270.581 288.21 271.061 288.21C271.561 288.19 272.071 288.14 272.591 288.06C273.131 287.96 273.701 287.83 274.301 287.67C274.921 287.49 275.601 287.23 276.341 286.89C276.261 286.65 276.141 286.49 275.981 286.41C275.821 286.31 275.611 286.26 275.351 286.26H268.931ZM277.691 278.97H272.231V274.86H277.691V278.97ZM285.414 288.21C285.554 288.21 285.674 288.17 285.774 288.09C285.874 287.99 285.924 287.87 285.924 287.73V283.26H291.384V287.73C291.384 288.05 291.544 288.21 291.864 288.21H293.004C293.124 288.21 293.224 288.24 293.304 288.3C293.404 288.34 293.474 288.45 293.514 288.63C293.574 288.81 293.614 289.09 293.634 289.47C293.654 289.85 293.664 290.37 293.664 291.03C293.664 291.73 293.654 292.28 293.634 292.68C293.614 293.08 293.574 293.38 293.514 293.58C293.474 293.78 293.404 293.9 293.304 293.94C293.224 293.98 293.124 294 293.004 294H292.074C291.394 294 290.764 293.94 290.184 293.82C289.624 293.7 289.134 293.43 288.714 293.01C288.234 293.43 287.744 293.7 287.244 293.82C286.764 293.94 286.324 294 285.924 294H284.274C284.154 294 284.054 293.98 283.974 293.94C283.874 293.9 283.804 293.79 283.764 293.61C283.704 293.41 283.664 293.12 283.644 292.74C283.624 292.36 283.614 291.84 283.614 291.18C283.614 290.48 283.624 289.93 283.644 289.53C283.664 289.13 283.704 288.84 283.764 288.66C283.804 288.46 283.874 288.34 283.974 288.3C284.054 288.24 284.154 288.21 284.274 288.21H285.414ZM292.854 281.61H284.274V277.5H292.854V281.61ZM294.144 288.21C294.284 288.21 294.404 288.17 294.504 288.09C294.604 287.99 294.654 287.87 294.654 287.73C294.654 285.73 295.184 284.16 296.244 283.02C297.324 281.86 298.794 281.28 300.654 281.28C302.614 281.28 304.084 281.85 305.064 282.99C306.044 284.13 306.534 285.65 306.534 287.55C306.534 289.55 305.994 291.13 304.914 292.29C303.834 293.43 302.344 294 300.444 294C299.864 294 299.294 293.92 298.734 293.76C298.174 293.6 297.694 293.35 297.294 293.01C297.054 293.23 296.794 293.4 296.514 293.52C296.254 293.64 295.954 293.74 295.614 293.82C295.294 293.9 294.924 293.95 294.504 293.97C294.084 293.99 293.584 294 293.004 294C292.884 294 292.784 293.98 292.704 293.94C292.604 293.9 292.534 293.79 292.494 293.61C292.434 293.41 292.394 293.12 292.374 292.74C292.354 292.36 292.344 291.84 292.344 291.18C292.344 290.48 292.354 289.93 292.374 289.53C292.394 289.13 292.434 288.84 292.494 288.66C292.534 288.46 292.604 288.34 292.704 288.3C292.784 288.24 292.884 288.21 293.004 288.21H294.144ZM299.604 287.55C299.604 287.97 299.694 288.24 299.874 288.36C300.054 288.48 300.274 288.54 300.534 288.54C300.754 288.54 300.954 288.48 301.134 288.36C301.314 288.24 301.404 287.97 301.404 287.55C301.404 286.89 301.114 286.56 300.534 286.56C299.914 286.56 299.604 286.89 299.604 287.55ZM311.51 288.21C311.51 287.23 311.71 286.31 312.11 285.45C312.51 284.57 313.13 283.62 313.97 282.6L312.71 281.28L316.55 277.5C318.09 278.9 319.33 280.12 320.27 281.16C321.21 282.18 321.93 283.1 322.43 283.92C322.95 284.72 323.29 285.46 323.45 286.14C323.63 286.82 323.72 287.51 323.72 288.21C323.72 289.05 323.56 289.82 323.24 290.52C322.92 291.22 322.48 291.83 321.92 292.35C321.38 292.87 320.72 293.28 319.94 293.58C319.18 293.86 318.35 294 317.45 294C316.55 294 315.73 293.86 314.99 293.58C314.25 293.3 313.62 292.91 313.1 292.41C312.6 291.91 312.21 291.31 311.93 290.61C311.65 289.89 311.51 289.09 311.51 288.21ZM318.59 287.67C318.59 287.11 318.26 286.53 317.6 285.93C316.94 286.57 316.61 287.15 316.61 287.67C316.61 288.25 316.94 288.54 317.6 288.54C318.26 288.54 318.59 288.25 318.59 287.67ZM331.307 292.68C331.307 293.8 331.117 294.86 330.737 295.86C330.357 296.86 329.827 297.73 329.147 298.47C328.467 299.23 327.647 299.83 326.687 300.27C325.747 300.71 324.697 300.93 323.537 300.93H320.237L319.727 295.17H322.877C323.957 295.17 324.717 294.95 325.157 294.51C325.617 294.07 325.847 293.52 325.847 292.86V283.26H331.307V292.68ZM345.495 293.34C345.495 294.66 345.305 295.82 344.925 296.82C344.565 297.84 344.045 298.69 343.365 299.37C342.685 300.05 341.875 300.56 340.935 300.9C340.015 301.26 339.005 301.44 337.905 301.44H333.435L333.105 295.65H338.235C338.895 295.65 339.355 295.52 339.615 295.26C339.895 295 340.035 294.58 340.035 294H339.555C338.315 294 337.295 293.86 336.495 293.58C335.695 293.3 335.065 292.91 334.605 292.41C334.165 291.89 333.855 291.26 333.675 290.52C333.515 289.78 333.435 288.96 333.435 288.06C333.435 287.2 333.565 286.38 333.825 285.6C334.085 284.82 334.465 284.14 334.965 283.56C335.485 282.96 336.115 282.49 336.855 282.15C337.595 281.79 338.435 281.61 339.375 281.61C340.195 281.61 340.975 281.73 341.715 281.97C342.455 282.21 343.105 282.6 343.665 283.14C344.225 283.66 344.665 284.34 344.985 285.18C345.325 286 345.495 287.01 345.495 288.21V293.34ZM338.565 287.7C338.565 288.02 338.625 288.27 338.745 288.45C338.865 288.63 339.135 288.72 339.555 288.72H340.365V287.88C340.365 287.12 340.055 286.74 339.435 286.74C338.855 286.74 338.565 287.06 338.565 287.7ZM349.775 282.12L353.885 278.16L359.165 284.61C359.925 285.51 360.415 286.32 360.635 287.04C360.875 287.76 360.995 288.43 360.995 289.05C360.995 289.73 360.875 290.37 360.635 290.97C360.415 291.57 360.075 292.1 359.615 292.56C359.155 293 358.565 293.35 357.845 293.61C357.145 293.87 356.315 294 355.355 294H347.435L346.955 288.21H353.885C354.205 288.21 354.365 288.08 354.365 287.82C354.365 287.64 354.255 287.41 354.035 287.13L349.775 282.12Z" fill="#733DD8"/>
<path fill-rule="evenodd" clip-rule="evenodd" d="M197.12 105.16C215.653 106.705 226.81 124.414 240.671 137.004C255.984 150.911 279.261 160.442 280.888 181.24C282.552 202.517 264.255 219.356 248.189 233.112C233.702 245.517 216.064 252.534 197.12 252.966C177.678 253.409 157.276 249.64 143.704 235.495C130.258 221.482 127.916 200.803 128.297 181.24C128.67 162.156 133.067 143.152 145.782 129.096C159.025 114.456 177.61 103.535 197.12 105.16Z" fill="#DDD6FE"/>
<path d="M230.933 162.998C229.706 162.567 228.468 162.169 227.222 161.802C227.432 160.927 227.625 160.062 227.795 159.213C230.605 145.268 228.768 134.033 222.495 130.335C216.481 126.788 206.645 130.486 196.712 139.327C195.732 140.2 194.774 141.098 193.84 142.02C193.215 141.407 192.578 140.805 191.931 140.216C181.519 130.763 171.084 126.779 164.818 130.489C158.808 134.046 157.03 144.607 159.558 157.823C159.81 159.132 160.094 160.434 160.41 161.729C158.933 162.158 157.507 162.615 156.144 163.101C143.938 167.453 136.143 174.273 136.143 181.347C136.143 188.653 144.511 195.982 157.225 200.425C158.255 200.784 159.294 201.116 160.341 201.422C160.001 202.816 159.699 204.219 159.436 205.631C157.025 218.617 158.908 228.929 164.901 232.464C171.09 236.114 181.479 232.362 191.594 223.32C192.414 222.585 193.216 221.829 194 221.053C195.012 222.051 196.051 223.021 197.116 223.96C206.914 232.582 216.592 236.064 222.579 232.52C228.762 228.859 230.772 217.782 228.163 204.304C227.958 203.248 227.727 202.198 227.472 201.153C228.201 200.932 228.918 200.705 229.615 200.468C242.832 195.99 251.431 188.751 251.431 181.347C251.431 174.247 243.385 167.381 230.933 162.998ZM228.066 195.688C227.436 195.901 226.789 196.107 226.13 196.307C224.671 191.584 222.702 186.561 220.293 181.371C222.591 176.306 224.485 171.347 225.903 166.654C227.083 167.003 228.227 167.371 229.33 167.76C239.999 171.516 246.507 177.068 246.507 181.347C246.507 185.904 239.478 191.821 228.066 195.688ZM223.332 205.282C224.485 211.242 224.65 216.63 223.885 220.842C223.199 224.627 221.818 227.151 220.11 228.161C216.478 230.312 208.708 227.517 200.328 220.143C199.338 219.269 198.371 218.368 197.429 217.439C200.678 213.806 203.925 209.583 207.094 204.892C212.667 204.386 217.933 203.559 222.708 202.43C222.942 203.401 223.151 204.352 223.332 205.282ZM175.447 227.79C171.898 229.071 169.07 229.108 167.361 228.101C163.724 225.956 162.213 217.676 164.275 206.57C164.52 205.258 164.8 203.953 165.117 202.656C169.838 203.724 175.066 204.493 180.653 204.956C183.843 209.546 187.183 213.765 190.549 217.459C189.834 218.167 189.102 218.857 188.353 219.528C183.88 223.526 179.398 226.363 175.447 227.79ZM158.818 195.66C153.195 193.695 148.553 191.141 145.371 188.354C142.511 185.851 141.068 183.364 141.068 181.347C141.068 177.054 147.327 171.578 157.765 167.857C159.032 167.406 160.358 166.98 161.734 166.58C163.176 171.378 165.069 176.396 167.352 181.47C165.039 186.618 163.12 191.716 161.663 196.571C160.707 196.291 159.758 195.987 158.818 195.66ZM164.392 156.856C162.225 145.533 163.664 136.991 167.285 134.848C171.142 132.564 179.671 135.82 188.66 143.982C189.246 144.516 189.823 145.06 190.39 145.615C187.04 149.293 183.73 153.481 180.569 158.043C175.147 158.557 169.957 159.383 165.185 160.488C164.891 159.285 164.626 158.074 164.392 156.856ZM214.122 169.413C212.995 167.423 211.826 165.457 210.616 163.517C214.295 163.993 217.819 164.624 221.129 165.396C220.136 168.653 218.897 172.058 217.439 175.549C216.374 173.481 215.268 171.436 214.122 169.413ZM193.842 149.214C196.113 151.731 198.389 154.541 200.626 157.589C196.088 157.37 191.54 157.369 187.001 157.587C189.24 154.566 191.535 151.76 193.842 149.214ZM173.432 169.448C172.301 171.454 171.216 173.487 170.177 175.544C168.744 172.066 167.517 168.646 166.515 165.343C169.804 164.59 173.312 163.975 176.967 163.508C175.743 165.459 174.564 167.441 173.432 169.448ZM177.071 199.544C173.295 199.113 169.735 198.53 166.447 197.797C167.465 194.436 168.718 190.943 170.183 187.39C171.226 189.449 172.316 191.483 173.452 193.49C174.62 195.553 175.83 197.574 177.071 199.544ZM193.978 213.834C191.644 211.259 189.315 208.41 187.042 205.346C189.249 205.434 191.5 205.479 193.787 205.479C196.137 205.479 198.46 205.425 200.747 205.321C198.501 208.441 196.235 211.294 193.978 213.834ZM217.485 187.208C219.026 190.8 220.325 194.275 221.357 197.579C218.014 198.359 214.405 198.987 210.602 199.454C211.821 197.479 213.001 195.479 214.142 193.455C215.302 191.398 216.416 189.316 217.485 187.208ZM209.875 190.939C208.129 194.041 206.285 197.085 204.345 200.064C200.831 200.319 197.31 200.445 193.787 200.443C190.199 200.443 186.709 200.329 183.349 200.106C181.358 197.133 179.478 194.085 177.714 190.967C175.957 187.865 174.317 184.696 172.795 181.467C174.313 178.238 175.949 175.067 177.699 171.963V171.964C179.449 168.859 181.313 165.823 183.289 162.863C186.718 162.598 190.234 162.46 193.787 162.46C197.356 162.46 200.877 162.599 204.305 162.867C206.26 165.822 208.112 168.847 209.859 171.937C211.616 175.034 213.274 178.188 214.83 181.396C213.29 184.636 211.637 187.819 209.875 190.939ZM220.035 134.698C223.896 136.974 225.397 146.156 222.972 158.196C222.817 158.965 222.643 159.747 222.454 160.54C217.671 159.411 212.477 158.572 207.038 158.05C203.87 153.437 200.588 149.243 197.293 145.612C198.156 144.761 199.041 143.932 199.945 143.125C208.456 135.551 216.411 132.56 220.035 134.698ZM193.787 170.819C199.473 170.819 204.082 175.533 204.082 181.347C204.082 187.161 199.473 191.875 193.787 191.875C188.101 191.875 183.492 187.161 183.492 181.347C183.492 175.533 188.101 170.819 193.787 170.819Z" fill="#733DD8"/>
<path d="M47.7536 285.38C48.6336 285.38 49.2536 285.16 49.6136 284.72C49.9936 284.28 50.1836 283.72 50.1836 283.04C50.1836 282.38 49.9836 281.87 49.5836 281.51C49.2036 281.15 48.5936 280.97 47.7536 280.97H46.8536V285.38H47.7536ZM57.8336 296H52.9136C51.8336 296 51.0936 295.65 50.6936 294.95L47.6936 289.7L47.7236 289.73C47.6236 289.57 47.5336 289.46 47.4536 289.4C47.3936 289.32 47.2836 289.28 47.1236 289.28H46.8536V296H41.0636V276.89H47.7536C49.2136 276.89 50.4536 277.04 51.4736 277.34C52.5136 277.62 53.3536 278.02 53.9936 278.54C54.6336 279.06 55.1036 279.68 55.4036 280.4C55.7036 281.12 55.8536 281.9 55.8536 282.74C55.8536 283.84 55.5736 284.85 55.0136 285.77C54.4536 286.69 53.6336 287.42 52.5536 287.96C52.7736 288.12 52.9536 288.28 53.0936 288.44C53.2536 288.6 53.4036 288.79 53.5436 289.01L57.8336 296ZM66.5512 287.09C66.5112 286.69 66.3812 286.35 66.1612 286.07C65.9612 285.77 65.6112 285.62 65.1112 285.62C64.3112 285.62 63.7612 286.11 63.4612 287.09H66.5512ZM63.3412 290.24C63.5012 291.04 63.7612 291.6 64.1212 291.92C64.5012 292.24 64.9812 292.4 65.5612 292.4C65.9412 292.4 66.2712 292.35 66.5512 292.25C66.8312 292.13 67.0912 292.01 67.3312 291.89C67.5712 291.75 67.8112 291.63 68.0512 291.53C68.3112 291.41 68.6012 291.35 68.9212 291.35C69.2412 291.35 69.5012 291.39 69.7012 291.47C69.9012 291.55 70.0812 291.67 70.2412 291.83L71.6212 293.54C71.1412 294.08 70.6212 294.53 70.0612 294.89C69.5212 295.23 68.9712 295.5 68.4112 295.7C67.8512 295.9 67.2912 296.03 66.7312 296.09C66.1912 296.17 65.6712 296.21 65.1712 296.21C64.1712 296.21 63.2312 296.05 62.3512 295.73C61.4712 295.41 60.7012 294.94 60.0412 294.32C59.3812 293.7 58.8512 292.93 58.4512 292.01C58.0712 291.09 57.8812 290.03 57.8812 288.83C57.8812 287.91 58.0412 287.04 58.3612 286.22C58.7012 285.4 59.1812 284.68 59.8012 284.06C60.4212 283.44 61.1712 282.95 62.0512 282.59C62.9312 282.21 63.9312 282.02 65.0512 282.02C66.0112 282.02 66.8912 282.17 67.6912 282.47C68.4912 282.75 69.1812 283.16 69.7612 283.7C70.3412 284.24 70.7912 284.91 71.1112 285.71C71.4312 286.49 71.5912 287.38 71.5912 288.38C71.5912 289.12 71.4912 289.62 71.2912 289.88C71.0912 290.12 70.6412 290.24 69.9412 290.24H63.3412ZM80.0247 290.81C79.0847 290.91 78.4747 291.07 78.1947 291.29C77.9347 291.49 77.8047 291.72 77.8047 291.98C77.8047 292.5 78.0047 292.76 78.4047 292.76C78.7247 292.76 78.9947 292.7 79.2147 292.58C79.4547 292.46 79.7247 292.25 80.0247 291.95V290.81ZM73.0647 284.39C73.9847 283.55 74.9847 282.94 76.0647 282.56C77.1647 282.16 78.3147 281.96 79.5147 281.96C80.4147 281.96 81.2247 282.1 81.9447 282.38C82.6847 282.64 83.3047 283.02 83.8047 283.52C84.3247 284 84.7147 284.59 84.9747 285.29C85.2547 285.97 85.3947 286.72 85.3947 287.54V296H82.8147C82.2947 296 81.8847 295.95 81.5847 295.85C81.3047 295.73 81.0847 295.49 80.9247 295.13C80.4047 295.47 79.8547 295.74 79.2747 295.94C78.7147 296.12 78.0247 296.21 77.2047 296.21C75.7647 296.21 74.6247 295.87 73.7847 295.19C72.9447 294.51 72.5247 293.51 72.5247 292.19C72.5247 291.71 72.6447 291.22 72.8847 290.72C73.1247 290.2 73.5247 289.73 74.0847 289.31C74.6647 288.87 75.4347 288.5 76.3947 288.2C77.3747 287.88 78.5847 287.68 80.0247 287.6V287.54C80.0247 286.94 79.9447 286.51 79.7847 286.25C79.6247 285.97 79.3747 285.83 79.0347 285.83C78.6547 285.83 78.3347 285.88 78.0747 285.98C77.8347 286.08 77.5847 286.2 77.3247 286.34C77.1047 286.44 76.8847 286.54 76.6647 286.64C76.4447 286.72 76.1247 286.76 75.7047 286.76C75.2447 286.76 74.8647 286.68 74.5647 286.52C74.2647 286.36 74.0547 286.15 73.9347 285.89L73.0647 284.39ZM98.493 285.98C98.333 286.2 98.163 286.36 97.983 286.46C97.803 286.56 97.513 286.61 97.113 286.61C96.533 286.61 96.113 286.49 95.853 286.25L95.883 286.28C95.683 286.14 95.463 286.03 95.223 285.95C94.983 285.85 94.713 285.8 94.413 285.8C93.733 285.8 93.233 286.09 92.913 286.67C92.613 287.23 92.463 288.04 92.463 289.1C92.463 290.16 92.633 290.98 92.973 291.56C93.313 292.14 93.773 292.43 94.353 292.43C94.693 292.43 94.963 292.38 95.163 292.28C95.363 292.16 95.543 292.03 95.703 291.89C95.883 291.75 96.073 291.63 96.273 291.53C96.493 291.41 96.793 291.35 97.173 291.35C97.513 291.35 97.793 291.41 98.013 291.53C98.253 291.63 98.443 291.76 98.583 291.92L99.873 293.54C99.393 294.08 98.893 294.53 98.373 294.89C97.853 295.23 97.323 295.5 96.783 295.7C96.263 295.9 95.733 296.03 95.193 296.09C94.653 296.17 94.133 296.21 93.633 296.21C92.753 296.21 91.913 296.05 91.113 295.73C90.313 295.41 89.603 294.95 88.983 294.35C88.363 293.73 87.873 292.98 87.513 292.1C87.153 291.22 86.973 290.22 86.973 289.1C86.973 288.12 87.123 287.2 87.423 286.34C87.743 285.46 88.203 284.71 88.803 284.09C89.423 283.45 90.183 282.95 91.083 282.59C91.983 282.21 93.023 282.02 94.203 282.02C95.383 282.02 96.413 282.21 97.293 282.59C98.173 282.97 98.993 283.54 99.753 284.3L98.493 285.98ZM106.391 296.21C104.931 296.21 103.811 295.83 103.031 295.07C102.251 294.31 101.861 293.28 101.861 291.98V285.83C101.281 285.83 100.831 285.72 100.511 285.5C100.191 285.26 100.031 284.94 100.031 284.54V282.71L102.161 282.29C102.301 281.83 102.431 281.36 102.551 280.88C102.691 280.38 102.811 279.89 102.911 279.41C103.091 278.77 103.611 278.45 104.471 278.45H107.261V282.2H110.411V285.83H107.261V291.71C107.261 291.87 107.271 292.01 107.291 292.13C107.311 292.23 107.331 292.28 107.351 292.28C107.471 292.28 107.581 292.23 107.681 292.13C107.801 292.03 108.021 291.98 108.341 291.98C108.661 291.98 108.901 292.03 109.061 292.13C109.241 292.21 109.391 292.35 109.511 292.55L110.861 294.68C109.541 295.7 108.051 296.21 106.391 296.21ZM125.002 286.61V292.04H111.652V286.61H125.002ZM134.091 285.38C134.971 285.38 135.591 285.16 135.951 284.72C136.331 284.28 136.521 283.72 136.521 283.04C136.521 282.38 136.321 281.87 135.921 281.51C135.541 281.15 134.931 280.97 134.091 280.97H133.191V285.38H134.091ZM144.171 296H139.251C138.171 296 137.431 295.65 137.031 294.95L134.031 289.7L134.061 289.73C133.961 289.57 133.871 289.46 133.791 289.4C133.731 289.32 133.621 289.28 133.461 289.28H133.191V296H127.401V276.89H134.091C135.551 276.89 136.791 277.04 137.811 277.34C138.851 277.62 139.691 278.02 140.331 278.54C140.971 279.06 141.441 279.68 141.741 280.4C142.041 281.12 142.191 281.9 142.191 282.74C142.191 283.84 141.911 284.85 141.351 285.77C140.791 286.69 139.971 287.42 138.891 287.96C139.111 288.12 139.291 288.28 139.431 288.44C139.591 288.6 139.741 288.79 139.881 289.01L144.171 296ZM152.889 287.09C152.849 286.69 152.719 286.35 152.499 286.07C152.299 285.77 151.949 285.62 151.449 285.62C150.649 285.62 150.099 286.11 149.799 287.09H152.889ZM149.679 290.24C149.839 291.04 150.099 291.6 150.459 291.92C150.839 292.24 151.319 292.4 151.899 292.4C152.279 292.4 152.609 292.35 152.889 292.25C153.169 292.13 153.429 292.01 153.669 291.89C153.909 291.75 154.149 291.63 154.389 291.53C154.649 291.41 154.939 291.35 155.259 291.35C155.579 291.35 155.839 291.39 156.039 291.47C156.239 291.55 156.419 291.67 156.579 291.83L157.959 293.54C157.479 294.08 156.959 294.53 156.399 294.89C155.859 295.23 155.309 295.5 154.749 295.7C154.189 295.9 153.629 296.03 153.069 296.09C152.529 296.17 152.009 296.21 151.509 296.21C150.509 296.21 149.569 296.05 148.689 295.73C147.809 295.41 147.039 294.94 146.379 294.32C145.719 293.7 145.189 292.93 144.789 292.01C144.409 291.09 144.219 290.03 144.219 288.83C144.219 287.91 144.379 287.04 144.699 286.22C145.039 285.4 145.519 284.68 146.139 284.06C146.759 283.44 147.509 282.95 148.389 282.59C149.269 282.21 150.269 282.02 151.389 282.02C152.349 282.02 153.229 282.17 154.029 282.47C154.829 282.75 155.519 283.16 156.099 283.7C156.679 284.24 157.129 284.91 157.449 285.71C157.769 286.49 157.929 287.38 157.929 288.38C157.929 289.12 157.829 289.62 157.629 289.88C157.429 290.12 156.979 290.24 156.279 290.24H149.679ZM167.593 286.25C167.353 286.03 167.143 285.89 166.963 285.83C166.783 285.77 166.573 285.74 166.333 285.74C165.873 285.74 165.473 285.99 165.133 286.49C164.813 286.99 164.653 287.87 164.653 289.13C164.653 290.33 164.763 291.16 164.983 291.62C165.223 292.08 165.533 292.31 165.913 292.31C166.213 292.31 166.503 292.23 166.783 292.07C167.083 291.89 167.353 291.69 167.593 291.47V286.25ZM173.053 276.53V296H169.843C168.923 296 168.363 295.71 168.163 295.13C167.703 295.45 167.183 295.71 166.603 295.91C166.023 296.11 165.353 296.21 164.593 296.21C163.813 296.21 163.083 296.05 162.403 295.73C161.743 295.41 161.173 294.95 160.693 294.35C160.213 293.73 159.833 292.99 159.553 292.13C159.273 291.25 159.133 290.25 159.133 289.13C159.133 288.11 159.283 287.16 159.583 286.28C159.883 285.4 160.313 284.64 160.873 284C161.433 283.36 162.093 282.86 162.853 282.5C163.633 282.14 164.493 281.96 165.433 281.96C165.873 281.96 166.263 282 166.603 282.08C166.963 282.14 167.293 282.23 167.593 282.35C167.613 281.43 167.623 280.43 167.623 279.35C167.643 278.27 167.653 277.33 167.653 276.53H173.053ZM188.664 282.2V296H185.484C185.124 296 184.804 295.94 184.524 295.82C184.244 295.7 184.034 295.52 183.894 295.28C183.494 295.56 183.024 295.79 182.484 295.97C181.944 296.13 181.314 296.21 180.594 296.21C179.754 296.21 179.014 296.08 178.374 295.82C177.754 295.54 177.224 295.17 176.784 294.71C176.364 294.23 176.044 293.66 175.824 293C175.604 292.34 175.494 291.62 175.494 290.84V282.2H180.834V290.84C180.834 291.84 181.154 292.34 181.794 292.34C182.254 292.34 182.744 292.14 183.264 291.74V282.2H188.664ZM205.358 296H200.588C200.108 296 199.728 295.91 199.448 295.73C199.188 295.55 198.988 295.33 198.848 295.07L197.258 292.4L195.698 295.1C195.538 295.36 195.328 295.58 195.068 295.76C194.808 295.92 194.438 296 193.958 296H189.428L194.048 288.95C193.348 287.93 192.598 286.81 191.798 285.59C191.018 284.35 190.288 283.22 189.608 282.2H194.438C194.878 282.2 195.208 282.26 195.428 282.38C195.668 282.5 195.858 282.66 195.998 282.86L197.618 285.47L199.058 282.95C199.238 282.67 199.438 282.48 199.658 282.38C199.878 282.26 200.188 282.2 200.588 282.2H205.298L200.798 288.68L205.358 296Z" fill="#6D28D9"/>
<defs>
<linearGradient id="paint0_linear" x1="0" y1="400" x2="400" y2="0" gradientUnits="userSpaceOnUse">
<stop offset="0.144027" stop-color="#DDD6FE"/>
<stop offset="0.709886" stop-color="#F5F3FF"/>
</linearGradient>
</defs>
</svg>
